<?xml version="1.0" encoding="utf-8"?><!DOCTYPE svg PUBLIC "-//W3C//DTD SVG 1.1//EN" "http://www.w3.org/Graphics/SVG/1.1/DTD/svg11.dtd"><svg version="1.1" id="robodt-logo" xmlns="http://www.w3.org/2000/svg" xmlns:xlink="http://www.w3.org/1999/xlink" x="0px" y="0px" width="301px" height="91.5px" viewBox="0 0 301 91.5" enable-background="new 0 0 301 91.5" xml:space="preserve"><g><path fill="#6EE12D" d="M43.053,64.855c0-8.957-2.209-15.459-8.957-18.281c6.013-2.822,8.834-8.587,8.834-17.423v-6.748c0-13.25-6.012-19.755-20-19.755H2.562v85.889h13.496V53.568h4.662c6.136,0,8.834,2.941,8.834,10.92v13.496c0,6.994,0.492,8.344,1.229,10.553h13.741c-1.351-3.191-1.472-6.258-1.472-10.43L43.053,64.855L43.053,64.855z M29.432,32.216c0,6.87-3.066,9.079-8.1,9.079h-5.273V14.915h6.502c4.785,0,6.871,2.699,6.871,8.836V32.216z"/><path fill="#6EE12D" d="M73.727,1.667c-13.252,0-20.49,7.854-20.49,21.594v44.662c0,13.74,7.238,21.594,20.49,21.594c13.25,0,20.49-7.854,20.49-21.594V23.26C94.217,9.519,86.977,1.667,73.727,1.667z M80.721,68.781c0,6.135-2.699,8.465-6.994,8.465s-6.994-2.33-6.994-8.465v-46.38c0-6.136,2.699-8.466,6.994-8.466s6.994,2.33,6.994,8.466V68.781z"/><path fill="#6EE12D" d="M137.041,42.77c6.012-2.82,8.711-8.468,8.711-17.302v-3.065c0-13.25-6.014-19.755-20-19.755h-20.367v85.889h21.227c13.496,0,20.49-7.117,20.49-20.369v-6.992C147.1,52.094,144.277,45.59,137.041,42.77z M118.879,14.917h6.504c4.785,0,6.871,2.699,6.871,8.834v4.785c0,6.871-3.068,9.08-8.1,9.08h-5.275V14.917z M133.604,67.797c0,6.381-2.455,8.469-6.994,8.469h-7.729V49.885h6.012c6.135,0,8.713,2.453,8.713,10.432L133.604,67.797L133.604,67.797z"/><path fill="#6EE12D" d="M177.039,1.667c-13.25,0-20.49,7.854-20.49,21.594v44.662c0,13.74,7.24,21.594,20.49,21.594c13.252,0,20.488-7.854,20.488-21.594V23.26C197.527,9.519,190.291,1.667,177.039,1.667z M184.031,68.781c0,6.135-2.697,8.465-6.992,8.465c-4.293,0-6.992-2.33-6.992-8.465v-46.38c0-6.136,2.699-8.466,6.992-8.466c4.295,0,6.992,2.33,6.992,8.466V68.781z"/><path fill="#6EE12D" d="M230.043,2.648h-21.35v85.889h21.35c13.498,0,20.123-7.484,20.123-21.227V23.872C250.168,10.129,243.541,2.648,230.043,2.648z M236.67,67.92c0,6.137-2.578,8.346-6.871,8.346h-7.607V14.915h7.607c4.293,0,6.871,2.209,6.871,8.345V67.92z"/><polygon fill="#6EE12D" points="257.281,2.648 257.281,14.917 271.393,14.917 271.393,88.535 284.889,88.535 284.889,14.917 299,14.917 299,2.648 "/></g></svg>