<?xml version="1.0" encoding="iso-8859-1"?><!DOCTYPE svg PUBLIC "-//W3C//DTD SVG 1.1//EN" "http://www.w3.org/Graphics/SVG/1.1/DTD/svg11.dtd"><svg version="1.1" id="robodt-logo" xmlns="http://www.w3.org/2000/svg" xmlns:xlink="http://www.w3.org/1999/xlink" x="0px" y="0px" width="301px" height="342px" viewBox="0 0 301 342" style="enable-background:new 0 0 301 342;" xml:space="preserve"><g><path style="fill:#6EE12D;" d="M264.184,162.708V68.673h-0.543L197.916,2.948V2.673h-94.035v0.542L38.422,68.673h-0.541v94.035h1.041l64.959,64.959v0.042h0.043l0.475,0.476l0.475-0.476h92.318l0.477,0.476l65.475-65.477H264.184L264.184,162.708z M263.184,160.715l-45.273-45.273l45.273-45.273V160.715z M197.918,4.362l64.311,64.312h-64.311V4.362L197.918,4.362z M197.918,69.673h64.346l-45.061,45.062l-19.285-19.285V69.673L197.918,69.673z M178.131,116.147l17.523,17.524h-24.508v-10.543L178.131,116.147z M171.148,121.715v-12.55l6.275,6.274L171.148,121.715z M171.148,107.751V96.708h25.008l-18.023,18.024L171.148,107.751z M171.148,95.708V69.673h25.77v26.035H171.148z M170.375,68.673l-18.637-18.634l45.18-45.178v63.812H170.375z M142.459,134.673l7.867,7.866l-18.41,18.409v-26.275H142.459z M131.918,133.673v-9.543l9.543,9.543H131.918z M143.875,134.673h14.316l-7.16,7.159L143.875,134.673z M151.031,143.246l18.445,18.443l-18.445,18.443l-18.441-18.443L151.031,143.246z M151.738,142.539l7.867-7.866h10.543v26.275L151.738,142.539z M160.605,133.673l9.543-9.543v9.543H160.605z M159.191,133.673h-16.316l-10.957-10.958v-14.55l11.457-11.458h15.316l11.457,11.458v14.55L159.191,133.673z M132.588,69.19l18.443-18.443l18.443,18.443l-18.443,18.444L132.588,69.19z M157.691,95.708h-13.316l6.656-6.659L157.691,95.708z M150.326,88.343l-7.365,7.365h-11.043V69.933L150.326,88.343z M141.959,96.708l-10.043,10.043V96.708H141.959z M160.105,96.708h10.043v10.043L160.105,96.708z M159.105,95.708l-7.367-7.365l18.41-18.409v25.774H159.105z M196.691,3.673l-45.66,45.659L105.373,3.673H196.691z M104.881,4.594l45.445,45.444l-18.637,18.634h-26.811L104.881,4.594L104.881,4.594z M104.881,69.673h26.035v26.035h-26.009l-0.026-0.027V69.673z M106.408,133.673l17.525-17.524l6.982,6.981v10.543H106.408z M130.918,134.673v27.035h-26.035v-26.507l0.525-0.528H130.918z M124.641,115.44l6.275-6.274v12.55L124.641,115.44z M123.934,114.733l-18.025-18.024h25.01v11.043L123.934,114.733z M103.881,4.629v64.043H39.838L103.881,4.629z M103.881,69.673v26.042l-19.02,19.019L39.801,69.672L103.881,69.673L103.881,69.673z M38.881,160.715V70.166l45.273,45.273L38.881,160.715z M103.881,226.253l-63.543-63.545h63.543V226.253z M103.881,161.708H39.338l-0.02-0.019l45.543-45.543l19.02,19.019V161.708L103.881,161.708z M103.881,133.673v0.079L85.569,115.44l18.733-18.731h0.189l18.732,18.731l-18.232,18.231L103.881,133.673L103.881,133.673z M104.881,162.708h27.035v-0.274l18.41,18.409l-45.445,45.443V162.708z M105.873,226.709l45.158-45.159l45.16,45.159H105.873z M196.918,226.02l-45.18-45.178l18.41-18.409v0.274h26.77V226.02z M196.918,161.708h-25.77v-27.035h25.508l0.262,0.261V161.708L196.918,161.708z M197.07,133.673l-18.23-18.231l18.73-18.731h0.191l18.732,18.731l-18.578,18.579v-0.347L197.07,133.673L197.07,133.673z M197.918,226.52v-63.812h63.811L197.918,226.52z M262.727,161.708h-64.811v-26.274l19.285-19.286l45.543,45.543L262.727,161.708z"/><path style="fill:#6EE12D;" d="M43.053,315.339c0-8.957-2.209-15.459-8.957-18.281c6.013-2.822,8.834-8.589,8.834-17.423v-6.749c0-13.25-6.012-19.754-20-19.754H2.562v85.888h13.496v-34.968h4.662c6.136,0,8.834,2.942,8.834,10.92v13.496c0,6.994,0.492,8.344,1.229,10.552h13.741c-1.351-3.19-1.472-6.257-1.472-10.429V315.339z M29.432,282.7c0,6.871-3.066,9.08-8.1,9.08h-5.273v-26.381h6.502c4.785,0,6.871,2.699,6.871,8.835V282.7z"/><path style="fill:#6EE12D;" d="M73.727,252.15c-13.252,0-20.49,7.854-20.49,21.594v44.662c0,13.741,7.238,21.594,20.49,21.594c13.25,0,20.49-7.853,20.49-21.594v-44.662C94.217,260.003,86.977,252.15,73.727,252.15z M80.721,319.265c0,6.135-2.699,8.466-6.994,8.466s-6.994-2.331-6.994-8.466v-46.38c0-6.135,2.699-8.465,6.994-8.465s6.994,2.33,6.994,8.465V319.265z"/><path style="fill:#6EE12D;" d="M137.041,293.254c6.012-2.821,8.711-8.468,8.711-17.302v-3.066c0-13.25-6.014-19.754-20-19.754h-20.367v85.888h21.227c13.496,0,20.49-7.116,20.49-20.368v-6.993C147.1,302.577,144.277,296.074,137.041,293.254z M118.879,265.4h6.504c4.785,0,6.871,2.699,6.871,8.835v4.784c0,6.871-3.068,9.08-8.1,9.08h-5.275V265.4z M133.604,318.282c0,6.38-2.455,8.468-6.994,8.468h-7.729v-26.382h6.012c6.135,0,8.713,2.454,8.713,10.432L133.604,318.282L133.604,318.282z"/><path style="fill:#6EE12D;" d="M177.039,252.15c-13.25,0-20.49,7.854-20.49,21.594v44.662c0,13.741,7.24,21.594,20.49,21.594c13.252,0,20.488-7.853,20.488-21.594v-44.662C197.527,260.003,190.291,252.15,177.039,252.15z M184.031,319.265c0,6.135-2.697,8.466-6.992,8.466c-4.293,0-6.992-2.331-6.992-8.466v-46.38c0-6.135,2.699-8.465,6.992-8.465c4.295,0,6.992,2.33,6.992,8.465V319.265z"/><path style="fill:#6EE12D;" d="M230.043,253.132h-21.35v85.888h21.35c13.498,0,20.123-7.484,20.123-21.227v-43.437C250.168,260.614,243.541,253.132,230.043,253.132z M236.67,318.405c0,6.136-2.578,8.345-6.871,8.345h-7.607v-61.351h7.607c4.293,0,6.871,2.209,6.871,8.344V318.405z"/><polygon style="fill:#6EE12D;" points="257.281,253.132 257.281,265.4 271.393,265.4 271.393,339.019 284.889,339.019 284.889,265.4 299,265.4 299,253.132 "/></g></svg>